<svg width="90" height="56" viewBox="0 0 90 56" fill="none" xmlns="http://www.w3.org/2000/svg">
<path d="M15.52 16.8C14.24 19.52 13.6 23.28 13.6 28.08C13.6 32.88 14.24 36.64 15.52 39.36C17.12 42.56 19.6533 44.16 23.12 44.16C26.5867 44.16 29.12 42.56 30.72 39.36C32.0533 36.6933 32.72 32.9333 32.72 28.08C32.72 23.2267 32.0533 19.4667 30.72 16.8C29.12 13.6 26.5867 12 23.12 12C19.6533 12 17.12 13.6 15.52 16.8ZM5.52 46.4C2.48 41.8133 0.96 35.7067 0.96 28.08C0.96 20.4533 2.48 14.3467 5.52 9.76C9.41333 3.84 15.28 0.879997 23.12 0.879997C31.0133 0.879997 36.9067 3.84 40.8 9.76C43.84 14.3467 45.36 20.4533 45.36 28.08C45.36 35.7067 43.84 41.8133 40.8 46.4C36.8 52.32 30.9067 55.28 23.12 55.28C15.3867 55.28 9.52 52.32 5.52 46.4ZM62.9638 22.88L51.1238 22.8C50.8038 21.9467 50.6438 20.5067 50.6438 18.48C50.6438 13.5733 52.3771 9.41333 55.8438 6C59.3638 2.58666 64.1104 0.879997 70.0838 0.879997C75.8971 0.879997 80.5638 2.53333 84.0838 5.84C87.6038 9.09333 89.3638 13.12 89.3638 17.92C89.3638 24.64 85.9504 30.0267 79.1238 34.08L69.2838 39.92C67.5238 41.04 66.3504 42.2133 65.7638 43.44H89.7638V54H50.3238C50.3238 48.88 51.2304 44.4533 53.0438 40.72C54.9104 36.9333 58.0838 33.7333 62.5638 31.12L71.0438 26.16C73.1238 24.9333 74.5904 23.7333 75.4438 22.56C76.2971 21.3333 76.7238 19.8667 76.7238 18.16C76.7238 16.4 76.1104 14.9333 74.8838 13.76C73.7104 12.5867 72.0038 12 69.7638 12C67.4171 12 65.6038 12.72 64.3238 14.16C63.0971 15.6 62.4838 17.44 62.4838 19.68C62.4838 20.8 62.6438 21.8667 62.9638 22.88Z" fill="#0669F7" fill-opacity="0.08"/>
</svg>
