<svg width="75" height="56" viewBox="0 0 75 56" fill="none" xmlns="http://www.w3.org/2000/svg">
<path d="M15.52 16.8C14.24 19.52 13.6 23.28 13.6 28.08C13.6 32.88 14.24 36.64 15.52 39.36C17.12 42.56 19.6533 44.16 23.12 44.16C26.5867 44.16 29.12 42.56 30.72 39.36C32.0533 36.6933 32.72 32.9333 32.72 28.08C32.72 23.2267 32.0533 19.4667 30.72 16.8C29.12 13.6 26.5867 12 23.12 12C19.6533 12 17.12 13.6 15.52 16.8ZM5.52 46.4C2.48 41.8133 0.96 35.7067 0.96 28.08C0.96 20.4533 2.48 14.3467 5.52 9.76C9.41333 3.84 15.28 0.879997 23.12 0.879997C31.0133 0.879997 36.9067 3.84 40.8 9.76C43.84 14.3467 45.36 20.4533 45.36 28.08C45.36 35.7067 43.84 41.8133 40.8 46.4C36.8 52.32 30.9067 55.28 23.12 55.28C15.3867 55.28 9.52 52.32 5.52 46.4ZM74.8206 54H62.2606V20.24H49.8606V11.84C53.6473 11.7867 56.8206 10.8267 59.3806 8.96C61.994 7.09333 63.5406 4.8 64.0206 2.08H74.8206V54Z" fill="#0669F7" fill-opacity="0.08"/>
</svg>
