<svg width="90" height="56" viewBox="0 0 90 56" fill="none" xmlns="http://www.w3.org/2000/svg">
<path d="M15.52 16.8C14.24 19.52 13.6 23.28 13.6 28.08C13.6 32.88 14.24 36.64 15.52 39.36C17.12 42.56 19.6533 44.16 23.12 44.16C26.5867 44.16 29.12 42.56 30.72 39.36C32.0533 36.6933 32.72 32.9333 32.72 28.08C32.72 23.2267 32.0533 19.4667 30.72 16.8C29.12 13.6 26.5867 12 23.12 12C19.6533 12 17.12 13.6 15.52 16.8ZM5.52 46.4C2.48 41.8133 0.96 35.7067 0.96 28.08C0.96 20.4533 2.48 14.3467 5.52 9.76C9.41333 3.84 15.28 0.879997 23.12 0.879997C31.0133 0.879997 36.9067 3.84 40.8 9.76C43.84 14.3467 45.36 20.4533 45.36 28.08C45.36 35.7067 43.84 41.8133 40.8 46.4C36.8 52.32 30.9067 55.28 23.12 55.28C15.3867 55.28 9.52 52.32 5.52 46.4ZM64.8763 31.44L59.4363 23.12L72.2363 12.64H50.5563V2.08H87.9963V11.84L75.1963 21.76C79.3029 22.0267 82.7429 23.6533 85.5163 26.64C88.3429 29.5733 89.7563 33.2267 89.7563 37.6C89.7563 42.4 87.8896 46.5333 84.1563 50C80.4763 53.4133 75.5429 55.12 69.3563 55.12C63.5429 55.12 58.7696 53.52 55.0363 50.32C51.3029 47.0667 49.2229 43.12 48.7963 38.48L60.9563 36.24C61.0629 38.5867 61.8629 40.5333 63.3563 42.08C64.9029 43.6267 66.8763 44.4 69.2762 44.4C71.6229 44.4 73.4896 43.7067 74.8763 42.32C76.3163 40.9333 77.0363 39.2533 77.0363 37.28C77.0363 34.9867 76.2896 33.2533 74.7963 32.08C73.3029 30.8533 71.5429 30.24 69.5163 30.24C67.9163 30.24 66.3696 30.64 64.8763 31.44Z" fill="#0669F7" fill-opacity="0.08"/>
</svg>
