<svg width="91" height="56" viewBox="0 0 91 56" fill="none" xmlns="http://www.w3.org/2000/svg">
<path d="M15.52 16.8C14.24 19.52 13.6 23.28 13.6 28.08C13.6 32.88 14.24 36.64 15.52 39.36C17.12 42.56 19.6533 44.16 23.12 44.16C26.5867 44.16 29.12 42.56 30.72 39.36C32.0533 36.6933 32.72 32.9333 32.72 28.08C32.72 23.2267 32.0533 19.4667 30.72 16.8C29.12 13.6 26.5867 12 23.12 12C19.6533 12 17.12 13.6 15.52 16.8ZM5.52 46.4C2.48 41.8133 0.96 35.7067 0.96 28.08C0.96 20.4533 2.48 14.3467 5.52 9.76C9.41333 3.84 15.28 0.879997 23.12 0.879997C31.0133 0.879997 36.9067 3.84 40.8 9.76C43.84 14.3467 45.36 20.4533 45.36 28.08C45.36 35.7067 43.84 41.8133 40.8 46.4C36.8 52.32 30.9067 55.28 23.12 55.28C15.3867 55.28 9.52 52.32 5.52 46.4ZM50.2363 39.2L61.9163 36.8C62.0229 38.9333 62.8229 40.7733 64.3163 42.32C65.8629 43.8133 67.8629 44.56 70.3163 44.56C72.5029 44.56 74.3429 43.8933 75.8363 42.56C77.3296 41.1733 78.0763 39.3333 78.0763 37.04C78.0763 34.5867 77.2763 32.6933 75.6763 31.36C74.1296 30.0267 72.2363 29.36 69.9963 29.36C66.9563 29.36 64.5296 30.48 62.7163 32.72L60.9563 32.08C59.7296 31.7067 58.4229 31.3067 57.0363 30.88C55.7029 30.4533 54.4496 30.0533 53.2763 29.68C52.1029 29.3067 51.4896 29.0933 51.4363 29.04L57.2763 2.08H87.4363V12.64H65.9963L63.9163 22.4C66.0496 20.5333 68.9829 19.6 72.7163 19.6C78.1563 19.6 82.5029 21.12 85.7563 24.16C89.0096 27.2 90.6363 31.4667 90.6363 36.96C90.6363 42.0267 88.7963 46.3467 85.1163 49.92C81.4896 53.4933 76.5563 55.28 70.3163 55.28C64.7696 55.28 60.1029 53.68 56.3163 50.48C52.5829 47.2267 50.5563 43.4667 50.2363 39.2Z" fill="#0669F7" fill-opacity="0.08"/>
</svg>
