<svg width="23" height="22" viewBox="0 0 23 22" fill="none" xmlns="http://www.w3.org/2000/svg">
<g id="instagram-sketched 1" clip-path="url(#clip0_152_1579)">
<path id="Vector" d="M22.3066 6.33627C22.2561 5.19114 22.0709 4.40388 21.8056 3.7217C21.532 2.99759 21.1109 2.34929 20.5593 1.81036C20.0204 1.26304 19.3678 0.837753 18.6521 0.568369C17.966 0.303097 17.1828 0.117917 16.0377 0.0674281C14.884 0.0126633 14.5178 0 11.5917 0C8.6657 0 8.29945 0.0126633 7.15005 0.0631521C6.00492 0.113641 5.21766 0.298986 4.53565 0.564093C3.81137 0.837753 3.16307 1.25877 2.62414 1.81036C2.07682 2.34929 1.6517 3.00187 1.38215 3.71759C1.11688 4.40388 0.931699 5.18686 0.88121 6.33199C0.826445 7.48567 0.813782 7.85192 0.813782 10.778C0.813782 13.704 0.826445 14.0703 0.876934 15.2197C0.927423 16.3648 1.11277 17.1521 1.37804 17.8342C1.6517 18.5583 2.07682 19.2066 2.62414 19.7456C3.16307 20.2929 3.81565 20.7182 4.53137 20.9876C5.21766 21.2528 6.00064 21.438 7.14593 21.4885C8.29517 21.5392 8.66159 21.5517 11.5876 21.5517C14.5137 21.5517 14.8799 21.5392 16.0293 21.4885C17.1745 21.438 17.9617 21.2528 18.6437 20.9876C20.0921 20.4276 21.2372 19.2825 21.7972 17.8342C22.0623 17.1479 22.2477 16.3648 22.2982 15.2197C22.3487 14.0703 22.3613 13.704 22.3613 10.778C22.3613 7.85192 22.357 7.48567 22.3066 6.33627ZM20.3658 15.1355C20.3194 16.188 20.1426 16.7564 19.9953 17.1353C19.6331 18.0742 18.888 18.8193 17.9491 19.1815C17.5701 19.3288 16.9977 19.5056 15.9492 19.5518C14.8125 19.6025 14.4716 19.615 11.596 19.615C8.72046 19.615 8.37526 19.6025 7.24264 19.5518C6.1901 19.5056 5.62173 19.3288 5.24282 19.1815C4.77559 19.0088 4.3503 18.7351 4.0051 18.3773C3.64724 18.0278 3.37358 17.6068 3.2009 17.1396C3.05354 16.7606 2.87675 16.188 2.83054 15.1397C2.77989 14.003 2.76739 13.6619 2.76739 10.7864C2.76739 7.91079 2.77989 7.5656 2.83054 6.43313C2.87675 5.3806 3.05354 4.81223 3.2009 4.43331C3.37358 3.96592 3.64724 3.5408 4.00938 3.19543C4.35869 2.83757 4.7797 2.56391 5.24709 2.39139C5.62601 2.24404 6.19865 2.06725 7.24691 2.02087C8.38365 1.97038 8.72474 1.95772 11.6001 1.95772C14.48 1.95772 14.8209 1.97038 15.9535 2.02087C17.0061 2.06725 17.5744 2.24404 17.9533 2.39139C18.4206 2.56391 18.8459 2.83757 19.1911 3.19543C19.5489 3.54491 19.8226 3.96592 19.9953 4.43331C20.1426 4.81223 20.3194 5.38471 20.3658 6.43313C20.4163 7.56987 20.4289 7.91079 20.4289 10.7864C20.4289 13.6619 20.4163 13.9987 20.3658 15.1355Z" fill="white"/>
<path id="Vector_2" d="M11.5916 5.24146C8.53511 5.24146 6.05524 7.72116 6.05524 10.7778C6.05524 13.8344 8.53511 16.3141 11.5916 16.3141C14.6482 16.3141 17.1279 13.8344 17.1279 10.7778C17.1279 7.72116 14.6482 5.24146 11.5916 5.24146ZM11.5916 14.3691C9.6087 14.3691 8.00029 12.7608 8.00029 10.7778C8.00029 8.79475 9.6087 7.18651 11.5916 7.18651C13.5746 7.18651 15.1829 8.79475 15.1829 10.7778C15.1829 12.7608 13.5746 14.3691 11.5916 14.3691Z" fill="white"/>
<path id="Vector_3" d="M18.6395 5.02283C18.6395 5.73658 18.0608 6.31531 17.3469 6.31531C16.6331 6.31531 16.0544 5.73658 16.0544 5.02283C16.0544 4.30891 16.6331 3.73035 17.3469 3.73035C18.0608 3.73035 18.6395 4.30891 18.6395 5.02283Z" fill="white"/>
</g>
<defs>
<clipPath id="clip0_152_1579">
<rect width="21.5517" height="21.5517" fill="white" transform="translate(0.775879)"/>
</clipPath>
</defs>
</svg>
