<svg width="16" height="16" viewBox="0 0 16 16" fill="none" xmlns="http://www.w3.org/2000/svg">
<path d="M3.73492 15.1552H0.902893V4.58875H3.73492V15.1552ZM0.736877 1.85437C0.736877 1.43119 0.876851 1.08289 1.1568 0.809448C1.44326 0.536011 1.83063 0.399292 2.31891 0.399292C2.80068 0.399292 3.18479 0.536011 3.47125 0.809448C3.75771 1.08289 3.90094 1.43119 3.90094 1.85437C3.90094 2.28406 3.75446 2.63562 3.46149 2.90906C3.17503 3.1825 2.79417 3.31921 2.31891 3.31921C1.84365 3.31921 1.45953 3.1825 1.16656 2.90906C0.880107 2.63562 0.736877 2.28406 0.736877 1.85437ZM8.66656 4.58875L8.75446 5.80945C9.50966 4.86544 10.522 4.39343 11.7916 4.39343C12.9114 4.39343 13.7447 4.72221 14.2916 5.37976C14.8384 6.03731 15.1184 7.02039 15.1314 8.32898V15.1552H12.3091V8.39734C12.3091 7.79838 12.1789 7.36544 11.9185 7.09851C11.6581 6.82507 11.2252 6.68835 10.6197 6.68835C9.82542 6.68835 9.22972 7.0269 8.83258 7.70398V15.1552H6.01031V4.58875H8.66656Z" fill="white"/>
</svg>
