<svg width="23" height="23" viewBox="0 0 23 23" fill="none" xmlns="http://www.w3.org/2000/svg">
<g id="mail 1" clip-path="url(#clip0_152_1552)">
<g id="Group">
<g id="Group_2">
<path id="Vector" d="M15.2465 11.6179L23.0004 16.5198V6.50903L15.2465 11.6179Z" fill="white"/>
</g>
</g>
<g id="Group_3">
<g id="Group_4">
<path id="Vector_2" d="M0 6.50903V16.5198L7.75388 11.6179L0 6.50903Z" fill="white"/>
</g>
</g>
<g id="Group_5">
<g id="Group_6">
<path id="Vector_3" d="M21.5625 3.59375H1.43753C0.720214 3.59375 0.150964 4.1285 0.0431519 4.81706L11.5 12.3654L22.9569 4.81706C22.8491 4.1285 22.2798 3.59375 21.5625 3.59375Z" fill="white"/>
</g>
</g>
<g id="Group_7">
<g id="Group_8">
<path id="Vector_4" d="M13.929 12.4862L11.8949 13.8259C11.7742 13.905 11.6376 13.9438 11.4996 13.9438C11.3616 13.9438 11.225 13.905 11.1043 13.8259L9.07022 12.4847L0.0455933 18.1931C0.156281 18.8759 0.722656 19.4063 1.43709 19.4063H21.5621C22.2765 19.4063 22.8429 18.8759 22.9536 18.1931L13.929 12.4862Z" fill="white"/>
</g>
</g>
</g>
<defs>
<clipPath id="clip0_152_1552">
<rect width="23" height="23" fill="white"/>
</clipPath>
</defs>
</svg>
