<svg width="23" height="23" viewBox="0 0 23 23" fill="none" xmlns="http://www.w3.org/2000/svg">
<g id="phone 2" clip-path="url(#clip0_152_1547)">
<g id="Group">
<g id="Group_2">
<path id="Vector" d="M22.3741 16.8797L19.1644 13.67C18.0181 12.5236 16.0693 12.9822 15.6108 14.4724C15.2669 15.5041 14.1206 16.0773 13.0889 15.848C10.7962 15.2748 7.70111 12.2944 7.12795 9.88708C6.78405 8.85534 7.47185 7.70901 8.50354 7.36516C9.99377 6.90663 10.4523 4.95787 9.30597 3.81154L6.09625 0.601822C5.17919 -0.200607 3.8036 -0.200607 3.00117 0.601822L0.823146 2.77985C-1.35488 5.0725 1.05241 11.148 6.44015 16.5358C11.8279 21.9235 17.9034 24.4455 20.1961 22.1528L22.3741 19.9748C23.1766 19.0577 23.1766 17.6821 22.3741 16.8797Z" fill="white"/>
</g>
</g>
</g>
<defs>
<clipPath id="clip0_152_1547">
<rect width="23" height="23" fill="white"/>
</clipPath>
</defs>
</svg>
