<svg width="24" height="24" viewBox="0 0 24 24" fill="none" xmlns="http://www.w3.org/2000/svg">
<g id="pin 1">
<g id="Group">
<g id="Group_2">
<path id="Vector" d="M12 0C7.58885 0 3.99996 3.58889 3.99996 8.00002C3.99996 9.32423 4.33104 10.6372 4.96043 11.8018L11.5625 23.7422C11.6504 23.9014 11.8179 24 12 24C12.1821 24 12.3496 23.9014 12.4375 23.7422L19.042 11.7978C19.6689 10.6372 20 9.32419 20 7.99997C20 3.58889 16.4111 0 12 0ZM12 12C9.79442 12 8 10.2056 8 8.00002C8 5.79445 9.79442 4.00003 12 4.00003C14.2055 4.00003 16 5.79445 16 8.00002C16 10.2056 14.2055 12 12 12Z" fill="white"/>
</g>
</g>
</g>
</svg>
