<svg width="44" height="44" viewBox="0 0 44 44" fill="none" xmlns="http://www.w3.org/2000/svg">
<g id="content 1" clip-path="url(#clip0_152_96)">
<g id="Group">
<g id="Group_2">
<path id="Vector" d="M34.1708 5.38062C34.1708 4.90598 33.786 4.52124 33.3114 4.52124H33.3065C32.8319 4.52124 32.4495 4.90598 32.4495 5.38062C32.4495 5.85525 32.8367 6.23999 33.3113 6.23999C33.7859 6.23999 34.1708 5.85525 34.1708 5.38062Z" fill="#0669F7"/>
<path id="Vector_2" d="M38.8059 5.38062C38.8059 4.90598 38.4212 4.52124 37.9466 4.52124H37.9417C37.467 4.52124 37.0847 4.90598 37.0847 5.38062C37.0847 5.85525 37.4718 6.23999 37.9465 6.23999C38.4211 6.23999 38.8059 5.85525 38.8059 5.38062Z" fill="#0669F7"/>
<path id="Vector_3" d="M29.5368 5.38062C29.5368 4.90598 29.1521 4.52124 28.6774 4.52124H28.6725C28.1979 4.52124 27.8156 4.90598 27.8156 5.38062C27.8156 5.85525 28.2027 6.23999 28.6773 6.23999C29.152 6.23999 29.5368 5.85525 29.5368 5.38062Z" fill="#0669F7"/>
<path id="Vector_4" d="M5.19434 5.38062C5.19434 5.85525 5.57908 6.23999 6.05371 6.23999H18.9543C19.4289 6.23999 19.8137 5.85525 19.8137 5.38062C19.8137 4.90598 19.4289 4.52124 18.9543 4.52124H6.05371C5.57916 4.52124 5.19434 4.90598 5.19434 5.38062Z" fill="#0669F7"/>
<path id="Vector_5" d="M41.2254 0H14.3573C13.8826 0 13.4979 0.384742 13.4979 0.859375C13.4979 1.33401 13.8826 1.71875 14.3573 1.71875H41.2254C41.7979 1.71875 42.2636 2.18341 42.2636 2.75455V9.04234H1.7363V2.75455C1.7363 2.18341 2.20096 1.71875 2.7721 1.71875H6.64032C7.11495 1.71875 7.4997 1.33401 7.4997 0.859375C7.4997 0.384742 7.11495 0 6.64032 0H2.7721C1.25324 0 0.0175476 1.2357 0.0175476 2.75455V41.243C0.0175476 42.7632 1.25324 44 2.7721 44H41.2254C42.7455 44 43.9823 42.7632 43.9823 41.243V2.75455C43.9823 1.2357 42.7455 0 41.2254 0ZM41.2254 42.2812H2.7721C2.20096 42.2812 1.7363 41.8155 1.7363 41.243V10.7611H42.2636V41.243C42.2636 41.8155 41.7978 42.2812 41.2254 42.2812Z" fill="#0669F7"/>
<path id="Vector_6" d="M8.04902 32.8807C6.07486 32.8807 4.46869 34.4868 4.46869 36.4611C4.46869 38.4339 6.07477 40.039 8.04902 40.039C10.0219 40.039 11.6269 38.4339 11.6269 36.4611C11.6269 34.4869 10.0219 32.8807 8.04902 32.8807ZM8.04902 38.3203C7.02258 38.3203 6.18744 37.4863 6.18744 36.4612C6.18744 35.4347 7.02249 34.5996 8.04902 34.5996C9.07408 34.5996 9.9081 35.4347 9.9081 36.4612C9.9081 37.4863 9.07417 38.3203 8.04902 38.3203Z" fill="#0669F7"/>
<path id="Vector_7" d="M17.3485 32.8807C15.3756 32.8807 13.7706 34.4868 13.7706 36.4611C13.7706 38.4339 15.3757 40.039 17.3485 40.039C19.3212 40.039 20.9263 38.4339 20.9263 36.4611C20.9263 34.4869 19.3213 32.8807 17.3485 32.8807ZM17.3485 38.3203C16.3233 38.3203 15.4894 37.4863 15.4894 36.4612C15.4894 35.4347 16.3234 34.5996 17.3485 34.5996C18.3735 34.5996 19.2076 35.4347 19.2076 36.4612C19.2076 37.4863 18.3736 38.3203 17.3485 38.3203Z" fill="#0669F7"/>
<path id="Vector_8" d="M26.6482 32.8807C24.6753 32.8807 23.0704 34.4868 23.0704 36.4611C23.0704 38.4339 24.6754 40.039 26.6482 40.039C28.6224 40.039 30.2285 38.4339 30.2285 36.4611C30.2285 34.4869 28.6224 32.8807 26.6482 32.8807ZM26.6482 38.3203C25.6231 38.3203 24.7891 37.4863 24.7891 36.4612C24.7891 35.4347 25.6231 34.5996 26.6482 34.5996C27.6746 34.5996 28.5098 35.4347 28.5098 36.4612C28.5097 37.4863 27.6746 38.3203 26.6482 38.3203Z" fill="#0669F7"/>
<path id="Vector_9" d="M35.9512 32.8807C33.9771 32.8807 32.3709 34.4868 32.3709 36.4611C32.3709 38.4339 33.977 40.039 35.9512 40.039C37.9241 40.039 39.529 38.4339 39.529 36.4611C39.529 34.4869 37.924 32.8807 35.9512 32.8807ZM35.9512 38.3203C34.9248 38.3203 34.0896 37.4863 34.0896 36.4612C34.0896 35.4347 34.9247 34.5996 35.9512 34.5996C36.9764 34.5996 37.8103 35.4347 37.8103 36.4612C37.8103 37.4863 36.9763 38.3203 35.9512 38.3203Z" fill="#0669F7"/>
<path id="Vector_10" d="M4.4709 28.6923C4.50184 29.1366 4.88151 29.4913 5.32847 29.4913H24.5624C25.0314 29.4913 25.423 29.1 25.423 28.6319V14.0867C25.423 13.612 25.0382 13.2273 24.5636 13.2273H5.32727C4.85264 13.2273 4.4679 13.612 4.4679 14.0867V28.6318C4.46893 28.652 4.46987 28.6722 4.4709 28.6923ZM18.7174 27.7726L17.1163 25.2491L19.2581 21.8753L23.0005 27.7726H18.7174ZM16.6818 27.7726H6.89056L11.7871 20.0582L16.6818 27.7726ZM23.7042 14.946V25.6739L19.9838 19.8112C19.8262 19.5628 19.5524 19.4123 19.2583 19.4123C18.9642 19.4123 18.6905 19.5628 18.5328 19.8111L16.0987 23.6453L12.5129 17.9941C12.3553 17.7456 12.0815 17.5952 11.7874 17.5951C11.7874 17.5951 11.7874 17.5951 11.7873 17.5951C11.4931 17.5951 11.2194 17.7455 11.0617 17.9939L6.18656 25.6744V14.946H23.7042Z" fill="#0669F7"/>
<path id="Vector_11" d="M29.0508 14.946H38.6361C39.1108 14.946 39.4955 14.5613 39.4955 14.0867C39.4955 13.612 39.1108 13.2273 38.6361 13.2273H29.0508C28.5762 13.2273 28.1915 13.612 28.1915 14.0867C28.1915 14.5613 28.5762 14.946 29.0508 14.946Z" fill="#0669F7"/>
<path id="Vector_12" d="M29.0508 19.7084H38.6361C39.1108 19.7084 39.4955 19.3236 39.4955 18.849C39.4955 18.3744 39.1108 17.9896 38.6361 17.9896H29.0508C28.5762 17.9896 28.1915 18.3744 28.1915 18.849C28.1915 19.3236 28.5762 19.7084 29.0508 19.7084Z" fill="#0669F7"/>
<path id="Vector_13" d="M29.0508 24.4684H38.6361C39.1108 24.4684 39.4955 24.0836 39.4955 23.609C39.4955 23.1344 39.1108 22.7496 38.6361 22.7496H29.0508C28.5762 22.7496 28.1915 23.1344 28.1915 23.609C28.1915 24.0836 28.5762 24.4684 29.0508 24.4684Z" fill="#0669F7"/>
<path id="Vector_14" d="M29.0508 29.2281H38.6361C39.1108 29.2281 39.4955 28.8434 39.4955 28.3688C39.4955 27.8941 39.1108 27.5094 38.6361 27.5094H29.0508C28.5762 27.5094 28.1915 27.8941 28.1915 28.3688C28.1915 28.8434 28.5762 29.2281 29.0508 29.2281Z" fill="#0669F7"/>
<path id="Vector_15" d="M10.498 1.71875H10.5029C10.9775 1.71875 11.3598 1.33401 11.3598 0.859375C11.3598 0.384742 10.9727 0 10.498 0C10.0234 0 9.63867 0.384742 9.63867 0.859375C9.63867 1.33401 10.0234 1.71875 10.498 1.71875Z" fill="#0669F7"/>
</g>
</g>
</g>
<defs>
<clipPath id="clip0_152_96">
<rect width="44" height="44" fill="white"/>
</clipPath>
</defs>
</svg>
