<svg width="44" height="44" viewBox="0 0 44 44" fill="none" xmlns="http://www.w3.org/2000/svg">
<g id="document 1" clip-path="url(#clip0_152_195)">
<g id="Group">
<g id="Group_2">
<path id="Vector" d="M42.8652 13.8469C41.3575 12.339 38.904 12.3391 37.3957 13.8472C36.9319 14.3115 33.97 17.2758 33.5176 17.7286V7.51317C33.5176 6.4802 33.1153 5.50911 32.3848 4.77873L28.7389 1.13266C28.0085 0.402188 27.0374 0 26.0044 0H3.86912C1.73675 0 0.00193214 1.73482 0.00193214 3.86719V40.1328C0.00193214 42.2652 1.73675 44 3.86912 44H29.6504C31.7827 44 33.5176 42.2652 33.5176 40.1328V28.6714L42.8652 19.3159C44.3765 17.8046 44.3769 15.3583 42.8652 13.8469ZM25.7833 2.57812C26.0268 2.57812 26.4961 2.53593 26.9159 2.95565L30.5619 6.60172C30.971 7.01087 30.9395 7.4592 30.9395 7.73438H25.7833V2.57812ZM30.9394 40.1328C30.9394 40.8436 30.3612 41.4219 29.6504 41.4219H3.86912C3.15833 41.4219 2.58006 40.8436 2.58006 40.1328V3.86719C2.58006 3.1564 3.15833 2.57812 3.86912 2.57812H23.2051V9.02344C23.2051 9.73534 23.7822 10.3125 24.4941 10.3125H30.9394V20.309C30.9394 20.309 27.1364 24.1154 27.1362 24.1154L25.314 25.9377C25.1726 26.0791 25.0659 26.2517 25.0026 26.4415L23.1795 31.9106C23.0251 32.3738 23.1457 32.8845 23.491 33.2297C23.8367 33.5754 24.3476 33.6954 24.8101 33.5411L30.2792 31.7182C30.469 31.6549 30.6416 31.5483 30.783 31.4067L30.9394 31.2503V40.1328ZM28.0485 26.8492L29.8715 28.6722L29.1751 29.3685L26.4407 30.28L27.3521 27.5455L28.0485 26.8492ZM31.6941 26.8488L29.8711 25.0258C30.8419 24.0543 35.1533 19.7392 36.0677 18.824L37.8907 20.647L31.6941 26.8488ZM41.0418 17.4933L39.713 18.8232L37.89 17.0002L39.2193 15.6698C39.7222 15.1672 40.5398 15.1673 41.0423 15.6698C41.5448 16.1726 41.5475 16.9875 41.0418 17.4933Z" fill="#0669F7"/>
</g>
</g>
<g id="Group_3">
<g id="Group_4">
<path id="Vector_2" d="M24.4941 12.8906H6.44725C5.73534 12.8906 5.15818 13.4678 5.15818 14.1797C5.15818 14.8916 5.73534 15.4688 6.44725 15.4688H24.4941C25.206 15.4688 25.7832 14.8916 25.7832 14.1797C25.7832 13.4678 25.206 12.8906 24.4941 12.8906Z" fill="#0669F7"/>
</g>
</g>
<g id="Group_5">
<g id="Group_6">
<path id="Vector_3" d="M19.3379 18.0469H6.44725C5.73534 18.0469 5.15818 18.624 5.15818 19.3359C5.15818 20.0478 5.73534 20.625 6.44725 20.625H19.3379C20.0498 20.625 20.6269 20.0478 20.6269 19.3359C20.6269 18.624 20.0498 18.0469 19.3379 18.0469Z" fill="#0669F7"/>
</g>
</g>
<g id="Group_7">
<g id="Group_8">
<path id="Vector_4" d="M19.3379 23.2031H6.44725C5.73534 23.2031 5.15818 23.7803 5.15818 24.4922C5.15818 25.2041 5.73534 25.7812 6.44725 25.7812H19.3379C20.0498 25.7812 20.6269 25.2041 20.6269 24.4922C20.6269 23.7803 20.0498 23.2031 19.3379 23.2031Z" fill="#0669F7"/>
</g>
</g>
<g id="Group_9">
<g id="Group_10">
<path id="Vector_5" d="M19.3379 28.3594H6.44725C5.73534 28.3594 5.15818 28.9365 5.15818 29.6484C5.15818 30.3603 5.73534 30.9375 6.44725 30.9375H19.3379C20.0498 30.9375 20.6269 30.3603 20.6269 29.6484C20.6269 28.9365 20.0498 28.3594 19.3379 28.3594Z" fill="#0669F7"/>
</g>
</g>
<g id="Group_11">
<g id="Group_12">
<path id="Vector_6" d="M24.4941 36.2656H16.7598C16.0478 36.2656 15.4707 36.8428 15.4707 37.5547C15.4707 38.2666 16.0478 38.8438 16.7598 38.8438H24.4941C25.206 38.8438 25.7832 38.2666 25.7832 37.5547C25.7832 36.8428 25.206 36.2656 24.4941 36.2656Z" fill="#0669F7"/>
</g>
</g>
</g>
<defs>
<clipPath id="clip0_152_195">
<rect width="44" height="44" fill="white"/>
</clipPath>
</defs>
</svg>
