<svg width="44" height="44" viewBox="0 0 44 44" fill="none" xmlns="http://www.w3.org/2000/svg">
<g id="cart 1">
<g id="Group">
<g id="Group_2">
<path id="Vector" d="M12.291 29.8779H13.6906H37.5548C38.1315 29.8779 38.6396 29.4991 38.8042 28.9464L43.9458 11.6826C44.0633 11.2881 43.9875 10.8614 43.7415 10.5314C43.4955 10.2014 43.1081 10.007 42.6965 10.007H9.52095L7.76679 4.11682C7.60222 3.56424 7.09407 3.18542 6.51743 3.18542H1.30359C0.583689 3.18534 0 3.76894 0 4.48893C0 5.20883 0.583689 5.79252 1.30359 5.79252H5.54556L7.29138 11.6544C7.29671 11.6737 7.3023 11.6929 7.30848 11.7118L11.9462 27.2839C9.29897 27.462 7.19926 29.6711 7.19926 32.3626C7.19926 35.1702 9.48339 37.4544 12.2909 37.4544H13.585C14.1506 39.3934 15.9429 40.8147 18.0621 40.8147C20.1813 40.8147 21.9737 39.3935 22.5392 37.4544H29.4557C30.0212 39.3934 31.8135 40.8147 33.9327 40.8147C36.0519 40.8147 37.8443 39.3935 38.4098 37.4544H40.0893C40.8092 37.4544 41.3929 36.8707 41.3929 36.1508C41.3929 35.4309 40.8092 34.8472 40.0893 34.8472H38.4098C37.8443 32.9081 36.052 31.4868 33.9327 31.4868C31.8135 31.4868 30.0211 32.9081 29.4557 34.8472H22.5392C21.9737 32.9081 20.1813 31.4868 18.0621 31.4868C15.9429 31.4868 14.1505 32.9081 13.585 34.8472H12.2909C10.9209 34.8472 9.80635 33.7326 9.80635 32.3626C9.80635 30.9925 10.921 29.8779 12.291 29.8779ZM31.4142 12.614H40.9482L39.1538 18.6388H31.4142V12.614ZM31.4141 21.246H38.3773L36.583 27.2708H31.4141V21.246ZM21.7684 12.614H28.8071V18.6388H21.7684V12.614ZM21.7683 21.246H28.807V27.2708H21.7683V21.246ZM19.1614 27.2708H14.6626L12.8683 21.246H19.1614V27.2708ZM10.2976 12.614H19.1613V18.6388H12.0919L10.2976 12.614ZM33.9328 34.0939C35.067 34.0939 35.9896 35.0166 35.9896 36.1507C35.9896 37.2848 35.067 38.2074 33.9328 38.2074C32.7987 38.2074 31.8761 37.2848 31.8761 36.1507C31.8761 35.0166 32.7987 34.0939 33.9328 34.0939ZM18.0622 34.0939C19.1963 34.0939 20.119 35.0166 20.119 36.1507C20.119 37.2848 19.1963 38.2074 18.0622 38.2074C16.9281 38.2074 16.0055 37.2848 16.0055 36.1507C16.0055 35.0166 16.9281 34.0939 18.0622 34.0939Z" fill="#0669F7"/>
</g>
</g>
</g>
</svg>
