<svg width="44" height="44" viewBox="0 0 44 44" fill="none" xmlns="http://www.w3.org/2000/svg">
<g id="code 1">
<g id="Group">
<g id="Group_2">
<path id="Vector" d="M0 1.36169V37.4777H14.1223V40.06H11.5411V42.6382H32.4589V40.06H29.8776V37.4777H44V1.36169H0ZM27.2993 40.06H16.7006V37.4777H27.2994V40.06H27.2993ZM41.4218 34.8995H2.57821V29.7368H41.4217V34.8995H41.4218ZM41.4218 27.1586H2.57821V3.93999H41.4217V27.1586H41.4218Z" fill="#0669F7"/>
</g>
</g>
<g id="Group_3">
<g id="Group_4">
<path id="Vector_2" d="M17.5263 10.8894L15.7032 9.06628L9.22018 15.5493L15.7032 22.0323L17.5263 20.2092L12.8663 15.5493L17.5263 10.8894Z" fill="#0669F7"/>
</g>
</g>
<g id="Group_5">
<g id="Group_6">
<path id="Vector_3" d="M28.2967 9.06628L26.4737 10.8894L31.1336 15.5493L26.4737 20.2092L28.2967 22.0323L34.7797 15.5493L28.2967 9.06628Z" fill="#0669F7"/>
</g>
</g>
<g id="Group_7">
<g id="Group_8">
<path id="Vector_4" d="M22.2321 7.77529L19.2391 22.8215L21.7679 23.3246L24.7609 8.27832L22.2321 7.77529Z" fill="#0669F7"/>
</g>
</g>
</g>
</svg>
