<svg width="22" height="22" viewBox="0 0 22 22" fill="none" xmlns="http://www.w3.org/2000/svg">
<g id="skype 1" clip-path="url(#clip0_152_1584)">
<g id="Group">
<g id="Group_2">
<path id="Vector" d="M21.0442 13.063C21.2004 12.3613 21.2812 11.6339 21.2812 10.8877C21.2812 5.29095 16.6799 0.752963 11.0024 0.752963C10.4044 0.752963 9.81707 0.804149 9.2446 0.901131C8.32596 0.331358 7.23895 0 6.07381 0C2.78043 0 0.112061 2.63066 0.112061 5.87823C0.112061 6.96255 0.411091 7.97683 0.931026 8.85102C0.794981 9.50835 0.722244 10.1899 0.722244 10.8877C0.722244 16.4857 5.32488 21.0237 11.0011 21.0237C11.6449 21.0237 12.274 20.9644 12.8842 20.854C13.7247 21.2985 14.6837 21.5517 15.7034 21.5517C18.9954 21.5517 21.6638 18.9197 21.6638 15.6748C21.6638 14.736 21.4402 13.851 21.0442 13.063ZM16.2745 15.7314C15.799 16.3955 15.0972 16.9208 14.1853 17.2926C13.2842 17.663 12.2053 17.8516 10.9741 17.8516C9.49784 17.8516 8.25996 17.5956 7.29283 17.0892C6.60182 16.7214 6.0334 16.2244 5.60102 15.6075C5.16325 14.9879 4.94369 14.3723 4.94369 13.7769C4.94369 13.4065 5.08781 13.0846 5.37203 12.8219C5.65355 12.5593 6.01454 12.4286 6.44557 12.4286C6.79848 12.4286 7.1029 12.5323 7.35075 12.7384C7.58647 12.9364 7.78986 13.2301 7.95285 13.6059C8.13469 14.018 8.3327 14.3656 8.54148 14.6363C8.74487 14.9017 9.03447 15.1226 9.40489 15.2963C9.77801 15.4687 10.2804 15.559 10.8974 15.559C11.7473 15.559 12.445 15.3798 12.9677 15.0269C13.4809 14.6835 13.7287 14.2686 13.7287 13.7621C13.7287 13.3634 13.5981 13.0482 13.3327 12.8017C13.0525 12.5431 12.6835 12.3424 12.2363 12.2037C11.7688 12.0609 11.1344 11.9046 10.3505 11.743C9.28232 11.5181 8.3758 11.2513 7.65651 10.9483C6.91971 10.6385 6.32434 10.2101 5.89062 9.67403C5.44881 9.1285 5.22521 8.44558 5.22521 7.64278C5.22521 6.87769 5.45958 6.18804 5.92294 5.59267C6.38227 5.00135 7.05306 4.53933 7.91917 4.22548C8.77181 3.91433 9.78609 3.75673 10.9351 3.75673C11.8524 3.75673 12.6592 3.8618 13.334 4.06923C14.0116 4.27667 14.5827 4.55684 15.0312 4.90302C15.4838 5.25323 15.8206 5.62365 16.0307 6.01158C16.2435 6.40221 16.3526 6.79149 16.3526 7.16729C16.3526 7.52963 16.2112 7.85964 15.931 8.1452C15.6482 8.43481 15.2926 8.58028 14.875 8.58028C14.4951 8.58028 14.1961 8.48734 13.99 8.30819C13.7974 8.13982 13.5967 7.87716 13.3758 7.50269C13.1199 7.02317 12.8087 6.64467 12.4531 6.37662C12.1069 6.11665 11.5304 5.98734 10.7357 5.98734C10.0003 5.98734 9.39951 6.13281 8.955 6.42107C8.52666 6.6972 8.31788 7.01509 8.31788 7.39224C8.31788 7.62258 8.38523 7.81519 8.52397 7.98087C8.66944 8.15867 8.87553 8.31088 9.13684 8.44019C9.40624 8.57354 9.68507 8.6813 9.96389 8.75673C10.2495 8.83486 10.7276 8.95205 11.3863 9.10156C12.2187 9.27667 12.9825 9.47468 13.6587 9.68885C14.3443 9.90302 14.9343 10.1684 15.4192 10.4795C15.9108 10.7961 16.3001 11.2002 16.5776 11.6851C16.8551 12.174 16.9951 12.7734 16.9951 13.4712C16.9938 14.305 16.7513 15.066 16.2745 15.7314Z" fill="white"/>
</g>
</g>
</g>
<defs>
<clipPath id="clip0_152_1584">
<rect width="21.5517" height="21.5517" fill="white" transform="translate(0.112061)"/>
</clipPath>
</defs>
</svg>
