<svg width="116" height="20" viewBox="0 0 116 20" fill="none" xmlns="http://www.w3.org/2000/svg">
<g clip-path="url(#clip0_152_273)">
<path d="M19.9479 7.67197C19.817 7.26699 19.4578 6.97935 19.0328 6.94105L13.2603 6.4169L10.9777 1.0742C10.8094 0.682654 10.4261 0.429199 10.0002 0.429199C9.57428 0.429199 9.19097 0.682654 9.02266 1.07512L6.74004 6.4169L0.966579 6.94105C0.542374 6.98027 0.184088 7.26699 0.0524013 7.67197C-0.0792854 8.07695 0.0423302 8.52114 0.363231 8.80115L4.72659 12.6278L3.43994 18.2956C3.34579 18.7123 3.50754 19.1431 3.85331 19.393C4.03917 19.5273 4.25661 19.5956 4.47588 19.5956C4.66495 19.5956 4.85248 19.5447 5.02079 19.444L10.0002 16.468L14.9777 19.444C15.3419 19.6631 15.8011 19.6431 16.1461 19.393C16.492 19.1423 16.6536 18.7114 16.5595 18.2956L15.2728 12.6278L19.6362 8.80191C19.9571 8.52114 20.0796 8.07771 19.9479 7.67197Z" fill="#FFC107"/>
</g>
<g clip-path="url(#clip1_152_273)">
<path d="M43.9479 7.67197C43.817 7.26699 43.4578 6.97935 43.0328 6.94105L37.2603 6.4169L34.9777 1.0742C34.8094 0.682654 34.4261 0.429199 34.0002 0.429199C33.5743 0.429199 33.191 0.682654 33.0227 1.07512L30.74 6.4169L24.9666 6.94105C24.5424 6.98027 24.1841 7.26699 24.0524 7.67197C23.9207 8.07695 24.0423 8.52114 24.3632 8.80115L28.7266 12.6278L27.4399 18.2956C27.3458 18.7123 27.5075 19.1431 27.8533 19.393C28.0392 19.5273 28.2566 19.5956 28.4759 19.5956C28.6649 19.5956 28.8525 19.5447 29.0208 19.444L34.0002 16.468L38.9777 19.444C39.3419 19.6631 39.8011 19.6431 40.1461 19.393C40.492 19.1423 40.6536 18.7114 40.5595 18.2956L39.2728 12.6278L43.6362 8.80191C43.9571 8.52114 44.0796 8.07771 43.9479 7.67197Z" fill="#FFC107"/>
</g>
<g clip-path="url(#clip2_152_273)">
<path d="M67.9479 7.67197C67.817 7.26699 67.4578 6.97935 67.0328 6.94105L61.2603 6.4169L58.9777 1.0742C58.8094 0.682654 58.4261 0.429199 58.0002 0.429199C57.5743 0.429199 57.191 0.682654 57.0227 1.07512L54.74 6.4169L48.9666 6.94105C48.5424 6.98027 48.1841 7.26699 48.0524 7.67197C47.9207 8.07695 48.0423 8.52114 48.3632 8.80115L52.7266 12.6278L51.4399 18.2956C51.3458 18.7123 51.5075 19.1431 51.8533 19.393C52.0392 19.5273 52.2566 19.5956 52.4759 19.5956C52.6649 19.5956 52.8525 19.5447 53.0208 19.444L58.0002 16.468L62.9777 19.444C63.3419 19.6631 63.8011 19.6431 64.1461 19.393C64.492 19.1423 64.6536 18.7114 64.5595 18.2956L63.2728 12.6278L67.6362 8.80191C67.9571 8.52114 68.0796 8.07771 67.9479 7.67197Z" fill="#FFC107"/>
</g>
<g clip-path="url(#clip3_152_273)">
<path d="M91.9479 7.67197C91.817 7.26699 91.4578 6.97935 91.0328 6.94105L85.2603 6.4169L82.9777 1.0742C82.8094 0.682654 82.4261 0.429199 82.0002 0.429199C81.5743 0.429199 81.191 0.682654 81.0227 1.07512L78.74 6.4169L72.9666 6.94105C72.5424 6.98027 72.1841 7.26699 72.0524 7.67197C71.9207 8.07695 72.0423 8.52114 72.3632 8.80115L76.7266 12.6278L75.4399 18.2956C75.3458 18.7123 75.5075 19.1431 75.8533 19.393C76.0392 19.5273 76.2566 19.5956 76.4759 19.5956C76.6649 19.5956 76.8525 19.5447 77.0208 19.444L82.0002 16.468L86.9777 19.444C87.3419 19.6631 87.8011 19.6431 88.1461 19.393C88.492 19.1423 88.6536 18.7114 88.5595 18.2956L87.2728 12.6278L91.6362 8.80191C91.9571 8.52114 92.0796 8.07771 91.9479 7.67197Z" fill="#FFC107"/>
</g>
<g clip-path="url(#clip4_152_273)">
<path d="M115.948 7.67197C115.817 7.26699 115.458 6.97935 115.033 6.94105L109.26 6.4169L106.978 1.0742C106.809 0.682654 106.426 0.429199 106 0.429199C105.574 0.429199 105.191 0.682654 105.023 1.07512L102.74 6.4169L96.9666 6.94105C96.5424 6.98027 96.1841 7.26699 96.0524 7.67197C95.9207 8.07695 96.0423 8.52114 96.3632 8.80115L100.727 12.6278L99.4399 18.2956C99.3458 18.7123 99.5075 19.1431 99.8533 19.393C100.039 19.5273 100.257 19.5956 100.476 19.5956C100.665 19.5956 100.852 19.5447 101.021 19.444L106 16.468L110.978 19.444C111.342 19.6631 111.801 19.6431 112.146 19.393C112.492 19.1423 112.654 18.7114 112.559 18.2956L111.273 12.6278L115.636 8.80191C115.957 8.52114 116.08 8.07771 115.948 7.67197Z" fill="#FFC107"/>
</g>
<defs>
<clipPath id="clip0_152_273">
<rect width="20" height="20" fill="white"/>
</clipPath>
<clipPath id="clip1_152_273">
<rect width="20" height="20" fill="white" transform="translate(24)"/>
</clipPath>
<clipPath id="clip2_152_273">
<rect width="20" height="20" fill="white" transform="translate(48)"/>
</clipPath>
<clipPath id="clip3_152_273">
<rect width="20" height="20" fill="white" transform="translate(72)"/>
</clipPath>
<clipPath id="clip4_152_273">
<rect width="20" height="20" fill="white" transform="translate(96)"/>
</clipPath>
</defs>
</svg>
