<svg width="22" height="22" viewBox="0 0 22 22" fill="none" xmlns="http://www.w3.org/2000/svg">
<g id="twitter 1" clip-path="url(#clip0_152_1572)">
<g id="Group">
<g id="Group_2">
<path id="Vector" d="M21.8879 4.09351C21.0865 4.44508 20.2325 4.6781 19.3421 4.79125C20.2581 4.24438 20.9572 3.385 21.2858 2.34917C20.4318 2.85833 19.489 3.21798 18.4841 3.41868C17.6732 2.55526 16.5175 2.02051 15.2567 2.02051C12.8106 2.02051 10.8413 4.00596 10.8413 6.43996C10.8413 6.79017 10.871 7.12692 10.9437 7.4475C7.27048 7.26835 4.02021 5.50785 1.83675 2.826C1.45555 3.48737 1.23196 4.24438 1.23196 5.0593C1.23196 6.58947 2.01994 7.94589 3.19451 8.73118C2.48465 8.71771 1.78826 8.51162 1.19828 8.187C1.19828 8.20047 1.19828 8.21798 1.19828 8.23549C1.19828 10.3826 2.7298 12.166 4.73815 12.5768C4.37851 12.6751 3.98654 12.7223 3.57975 12.7223C3.29688 12.7223 3.01132 12.7061 2.74327 12.6469C3.31574 14.3966 4.9402 15.683 6.87177 15.7247C5.36854 16.9006 3.45987 17.6091 1.39359 17.6091C1.03126 17.6091 0.683734 17.593 0.336212 17.5485C2.29338 18.8106 4.61288 19.5313 7.11423 19.5313C15.2446 19.5313 19.6897 12.7964 19.6897 6.95855C19.6897 6.76323 19.6829 6.57466 19.6735 6.38743C20.5504 5.76512 21.2872 4.98791 21.8879 4.09351Z" fill="white"/>
</g>
</g>
</g>
<defs>
<clipPath id="clip0_152_1572">
<rect width="21.5517" height="21.5517" fill="white" transform="translate(0.336212)"/>
</clipPath>
</defs>
</svg>
