<svg width="77" height="45" viewBox="0 0 77 45" fill="none" xmlns="http://www.w3.org/2000/svg">
<g id="XM ">
<path d="M76.7038 0V36.6477H66.8089V13.9997L52.2234 36.4649L33.9119 8.26627L11.8009 36.6477H0L28.5488 0H40.3489L52.2234 18.2874L64.0971 0H76.7038Z" fill="#20282F"/>
<path d="M4.13585 40.5876V41.4635H2.71991V44.9341H1.58716V41.4635H0.164644V40.5876H4.13585Z" fill="#20282F"/>
<path d="M7.08837 44.9341V40.5876H10.4734V41.4635H8.22112V42.3459H10.0124V43.1692H8.22112V44.0582H10.5591V44.9341H7.08837Z" fill="#20282F"/>
<path d="M17.3621 43.6894C17.2787 43.9924 17.1448 44.2426 16.9604 44.4402C16.776 44.6334 16.5565 44.7761 16.3018 44.8683C16.0472 44.9561 15.7662 45 15.4589 45C15.0198 45 14.64 44.9122 14.3195 44.7366C13.999 44.5566 13.7531 44.2997 13.5819 43.966C13.4107 43.6324 13.3251 43.2306 13.3251 42.7608C13.3251 42.2911 13.4107 41.8893 13.5819 41.5557C13.7531 41.222 13.999 40.9673 14.3195 40.7917C14.64 40.6117 15.0176 40.5217 15.4523 40.5217C15.7552 40.5217 16.034 40.5656 16.2887 40.6534C16.5433 40.7368 16.7584 40.8664 16.9341 41.042C17.1097 41.2176 17.2348 41.4437 17.3094 41.7203L16.315 42.122C16.2535 41.8498 16.1525 41.6632 16.0121 41.5622C15.8759 41.4613 15.7025 41.4108 15.4918 41.4108C15.2854 41.4108 15.1054 41.4613 14.9517 41.5622C14.8025 41.6632 14.6861 41.8147 14.6027 42.0167C14.5237 42.2142 14.4842 42.4623 14.4842 42.7608C14.4842 43.055 14.5215 43.3031 14.5961 43.505C14.6708 43.707 14.7827 43.8585 14.932 43.9595C15.0857 44.0604 15.2744 44.1109 15.4984 44.1109C15.7091 44.1109 15.8869 44.0538 16.0318 43.9397C16.1811 43.8212 16.2821 43.6411 16.3348 43.3997L17.3621 43.6894Z" fill="#20282F"/>
<path d="M24.2223 40.5876V44.9341H23.0895V40.5876H24.2223ZM21.4299 40.5876V44.9341H20.2972V40.5876H21.4299ZM23.6954 42.3064V43.1823H20.8504V42.3064H23.6954Z" fill="#20282F"/>
<path d="M31.4085 40.5876V44.9341H30.1507L28.8006 42.583L28.4713 41.9376H28.4647L28.4911 42.7411V44.9341H27.49V40.5876H28.7479L30.098 42.9387L30.4273 43.5841H30.4339L30.4075 42.7806V40.5876H31.4085Z" fill="#20282F"/>
<path d="M36.6258 40.5217C37.0649 40.5217 37.4425 40.6117 37.7586 40.7917C38.0791 40.9673 38.325 41.222 38.4962 41.5557C38.6674 41.8893 38.753 42.2911 38.753 42.7608C38.753 43.2306 38.6674 43.6324 38.4962 43.966C38.325 44.2997 38.0791 44.5566 37.7586 44.7366C37.4425 44.9122 37.0649 45 36.6258 45C36.1868 45 35.807 44.9122 35.4865 44.7366C35.166 44.5566 34.9201 44.2997 34.7489 43.966C34.5777 43.6324 34.4921 43.2306 34.4921 42.7608C34.4921 42.2911 34.5777 41.8893 34.7489 41.5557C34.9201 41.222 35.166 40.9673 35.4865 40.7917C35.807 40.6117 36.1868 40.5217 36.6258 40.5217ZM36.6258 41.4108C36.4151 41.4108 36.2373 41.4613 36.0924 41.5622C35.9475 41.6632 35.8377 41.8147 35.7631 42.0167C35.6885 42.2142 35.6512 42.4623 35.6512 42.7608C35.6512 43.055 35.6885 43.3031 35.7631 43.505C35.8377 43.707 35.9475 43.8585 36.0924 43.9595C36.2373 44.0604 36.4151 44.1109 36.6258 44.1109C36.8366 44.1109 37.0122 44.0604 37.1527 43.9595C37.2976 43.8585 37.4074 43.707 37.482 43.505C37.5566 43.3031 37.5939 43.055 37.5939 42.7608C37.5939 42.4623 37.5566 42.2142 37.482 42.0167C37.4074 41.8147 37.2976 41.6632 37.1527 41.5622C37.0122 41.4613 36.8366 41.4108 36.6258 41.4108Z" fill="#20282F"/>
<path d="M42.9699 44.0582H45.1498V44.9341H41.8372V40.5876H42.9699V44.0582Z" fill="#20282F"/>
<path d="M49.9118 40.5217C50.3509 40.5217 50.7284 40.6117 51.0446 40.7917C51.3651 40.9673 51.6109 41.222 51.7822 41.5557C51.9534 41.8893 52.039 42.2911 52.039 42.7608C52.039 43.2306 51.9534 43.6324 51.7822 43.966C51.6109 44.2997 51.3651 44.5566 51.0446 44.7366C50.7284 44.9122 50.3509 45 49.9118 45C49.4728 45 49.093 44.9122 48.7725 44.7366C48.452 44.5566 48.2061 44.2997 48.0349 43.966C47.8636 43.6324 47.778 43.2306 47.778 42.7608C47.778 42.2911 47.8636 41.8893 48.0349 41.5557C48.2061 41.222 48.452 40.9673 48.7725 40.7917C49.093 40.6117 49.4728 40.5217 49.9118 40.5217ZM49.9118 41.4108C49.7011 41.4108 49.5233 41.4613 49.3784 41.5622C49.2335 41.6632 49.1237 41.8147 49.0491 42.0167C48.9744 42.2142 48.9371 42.4623 48.9371 42.7608C48.9371 43.055 48.9744 43.3031 49.0491 43.505C49.1237 43.707 49.2335 43.8585 49.3784 43.9595C49.5233 44.0604 49.7011 44.1109 49.9118 44.1109C50.1226 44.1109 50.2982 44.0604 50.4387 43.9595C50.5836 43.8585 50.6933 43.707 50.768 43.505C50.8426 43.3031 50.8799 43.055 50.8799 42.7608C50.8799 42.4623 50.8426 42.2142 50.768 42.0167C50.6933 41.8147 50.5836 41.6632 50.4387 41.5622C50.2982 41.4613 50.1226 41.4108 49.9118 41.4108Z" fill="#20282F"/>
<path d="M56.921 45C56.5347 45 56.19 44.9144 55.8871 44.7432C55.5885 44.5719 55.3558 44.3195 55.189 43.9858C55.0222 43.6521 54.9387 43.246 54.9387 42.7674C54.9387 42.2976 55.0265 41.8959 55.2022 41.5622C55.3778 41.2286 55.628 40.9717 55.9529 40.7917C56.2822 40.6117 56.6686 40.5217 57.112 40.5217C57.6038 40.5217 58.0011 40.6117 58.3041 40.7917C58.607 40.9673 58.8419 41.2483 59.0087 41.6347L57.9616 42.0496C57.9045 41.8257 57.8035 41.6632 57.6586 41.5622C57.5138 41.4613 57.3338 41.4108 57.1186 41.4108C56.9035 41.4108 56.7191 41.4635 56.5654 41.5688C56.4118 41.6698 56.2954 41.8213 56.2164 42.0232C56.1373 42.2208 56.0978 42.4667 56.0978 42.7608C56.0978 43.0682 56.1373 43.325 56.2164 43.5314C56.2998 43.7377 56.4205 43.8914 56.5786 43.9924C56.741 44.089 56.9408 44.1373 57.1779 44.1373C57.3052 44.1373 57.4216 44.1219 57.5269 44.0912C57.6323 44.0604 57.7245 44.0165 57.8035 43.9595C57.8826 43.898 57.944 43.8233 57.9879 43.7355C58.0318 43.6433 58.0538 43.5358 58.0538 43.4128V43.347H57.0593V42.5896H59.0153V44.9341H58.2448L58.1592 43.9134L58.3436 44.0714C58.2514 44.37 58.0845 44.6005 57.8431 44.7629C57.606 44.921 57.2986 45 56.921 45Z" fill="#20282F"/>
<path d="M63.3201 40.5876V44.9341H62.1874V40.5876H63.3201Z" fill="#20282F"/>
<path d="M66.589 44.9341V40.5876H69.9741V41.4635H67.7218V42.3459H69.5131V43.1692H67.7218V44.0582H70.0597V44.9341H66.589Z" fill="#20282F"/>
<path d="M74.7478 40.5217C75.1518 40.5217 75.5074 40.5854 75.8147 40.7127C76.1264 40.8356 76.3965 41.0178 76.6248 41.2593L76.0782 41.9903C75.8894 41.7927 75.6852 41.6457 75.4657 41.5491C75.2505 41.4481 75.0047 41.3976 74.7281 41.3976C74.5656 41.3976 74.4339 41.4152 74.3329 41.4503C74.2319 41.4854 74.1595 41.5337 74.1156 41.5952C74.0717 41.6566 74.0497 41.7269 74.0497 41.8059C74.0497 41.8981 74.0915 41.9771 74.1749 42.043C74.2627 42.1045 74.4032 42.1572 74.5964 42.2011L75.3274 42.3657C75.762 42.4667 76.0803 42.6138 76.2823 42.8069C76.4843 43.0001 76.5853 43.257 76.5853 43.5775C76.5853 43.8848 76.5062 44.146 76.3482 44.3612C76.1901 44.5719 75.9728 44.7322 75.6962 44.8419C75.4196 44.9473 75.1035 45 74.7478 45C74.4581 45 74.1815 44.9693 73.918 44.9078C73.6546 44.8419 73.4175 44.7497 73.2068 44.6312C72.996 44.5127 72.8182 44.3766 72.6733 44.2229L73.2199 43.4655C73.3297 43.5928 73.4636 43.707 73.6217 43.808C73.7841 43.9046 73.9597 43.9814 74.1485 44.0385C74.3417 44.0956 74.5371 44.1241 74.7347 44.1241C74.8883 44.1241 75.0157 44.1087 75.1166 44.078C75.222 44.0473 75.2988 44.0012 75.3471 43.9397C75.3954 43.8782 75.4196 43.8058 75.4196 43.7224C75.4196 43.6302 75.3867 43.5533 75.3208 43.4919C75.2549 43.426 75.1298 43.3711 74.9454 43.3272L74.1419 43.1494C73.8961 43.0923 73.6766 43.0177 73.4834 42.9255C73.2946 42.8289 73.1453 42.7016 73.0355 42.5435C72.9258 42.3811 72.8709 42.1791 72.8709 41.9376C72.8709 41.6654 72.9455 41.4239 73.0948 41.2132C73.2441 40.9981 73.4592 40.829 73.7402 40.7061C74.0212 40.5832 74.3571 40.5217 74.7478 40.5217Z" fill="#20282F"/>
<path d="M40.3858 36.6477H28.5486L0 0H11.8006L38.3335 34.0518L40.3858 36.6477Z" fill="#0669F7"/>
</g>
</svg>
